<svg width="103" height="55" viewBox="0 0 103 55" fill="none" xmlns="http://www.w3.org/2000/svg">
<ellipse rx="49.2957" ry="21.3696" transform="matrix(0.993459 -0.114192 0.113038 0.993591 51.4508 27.005)" fill="#089AF9"/>
<path d="M31.5075 40.647L43.4386 19.3712C44.9118 16.7443 43.016 13.5023 40.0042 13.4978C38.5492 13.4957 37.2112 14.2948 36.5232 15.5768L24.9877 37.0696C23.6025 39.6505 25.6065 42.7453 28.5283 42.5373C29.7761 42.4484 30.8956 41.7381 31.5075 40.647Z" fill="white"/>
<path d="M76.7278 11.2545L50.438 12.6661C49.3895 12.7224 48.4515 13.3358 47.9795 14.2738C46.9647 16.2908 48.5185 18.6489 50.7723 18.5122L55.294 18.2379C56.386 18.1716 57.1192 19.3392 56.5852 20.2941L48.2033 35.2813C46.7482 37.8831 48.7883 41.0546 51.7591 40.8093C53.0072 40.7063 54.1198 39.9827 54.7202 38.8837L63.7576 22.3411C65.5004 19.151 68.7414 17.0619 72.3664 16.7919L77.0603 16.4422C77.9898 16.373 78.8111 15.8114 79.2128 14.9702C80.063 13.19 78.6978 11.1487 76.7278 11.2545Z" fill="white"/>
</svg>
